<svg xmlns="http://www.w3.org/2000/svg" viewBox="0 0 100 100" id="party-music-cd">
  <path d="m47.7 70.7 15.8 21.9c7.5-3.9 13.8-10.2 17.8-17.7L59.4 59c-1.3 5.8-5.9 10.3-11.7 11.7zM7.3 36 29 52c1.3-5.7 5.9-10.3 11.7-11.6l-16-21.7c-7.3 3.8-13.5 10-17.4 17.3z"></path>
  <path d="M31.6 55.5c0 7 5.7 12.7 12.7 12.7.5 0 1 0 1.5-.1 5.8-.7 10.5-5.4 11.1-11.2.1-.5.1-1 .1-1.5 0-7-5.7-12.7-12.7-12.7-.5 0-1 0-1.5.1-5.8.6-10.5 5.3-11.2 11.2v1.5zM44.2 49c3.6 0 6.6 3 6.6 6.6 0 3.6-2.9 6.6-6.6 6.6-3.6 0-6.5-2.9-6.5-6.6 0-3.7 2.9-6.6 6.5-6.6z"></path>
  <path d="M77.7 35.4c0 5.2-4.5 9.4-10.1 9.4-5.7 0-10.1-4.1-10.1-9.4 0-4.8 3.9-8.8 8.8-9.4v-6c-6.6-4.1-14.1-6.3-22-6.3-6.1 0-12.1 1.3-17.6 3.9l16.8 22.8c.1.1.1.2.2.4h.6c8.1 0 14.7 6.6 14.7 14.7v.6c.1 0 .2.1.4.2l22.9 16.6c2.5-5.5 3.8-11.3 3.8-17.4 0-9.1-2.9-17.8-8.3-25v4.9zM44.9 70.2h-.6c-8.1 0-14.7-6.6-14.7-14.7v-.6c-.1 0-.3-.1-.4-.2L6.4 38c-2.6 5.5-3.9 11.4-3.9 17.5 0 23 18.7 41.7 41.7 41.7 6 0 11.9-1.3 17.3-3.8L45 70.5c0-.1-.1-.2-.1-.3zm-.7 19.1c-18.6 0-33.7-15.1-33.7-33.7 0-.5.4-1 1-1s1 .5 1 1c0 17.5 14.2 31.7 31.7 31.7.6 0 1 .5 1 1s-.4 1-1 1z"></path>
  <path d="M93.5 3.9 72.2 6.5c-2.2.3-3.9 2.2-3.9 4.5v17h-.7c-4.5 0-8.1 3.3-8.1 7.5s3.6 7.4 8.1 7.4 8.1-3.3 8.1-7.4V19.6c0-1 .8-1.9 1.9-2l11.3-1.4c.6-.1 1.1.1 1.6.5.4.4.7.9.7 1.5v6.2h-.7c-4.5 0-8.1 3.3-8.1 7.4 0 4.1 3.6 7.4 8.1 7.4s8.1-3.3 8.1-7.4V8.4c0-1.3-.6-2.5-1.5-3.3-1-.9-2.3-1.4-3.6-1.2z"></path>
</svg>
